<svg id="Layer_1" data-name="Layer 1" xmlns="http://www.w3.org/2000/svg" viewBox="0 0 130.51 97.92"><path d="M126.05,35.64a3.33,3.33,0,1,1-6.27-1.47l-6.72-10.91a5.08,5.08,0,0,1-1.11.22,5.26,5.26,0,0,1-2.36-.6L93.66,38.81c.5.57,1,1.12,1.45,1.71a24.55,24.55,0,0,1,4.65,14.42,24.16,24.16,0,0,1-3.9,13.27L93,65.39a20.38,20.38,0,0,0,2.88-10.45,20.86,20.86,0,0,0-3.57-11.66,25.14,25.14,0,0,0-2.18-2.7,21,21,0,0,0-15.11-6.49,20.75,20.75,0,0,0-13.4,5l9.54,9.54a6.69,6.69,0,0,1,7.73,0l7.85-7.85a14.11,14.11,0,0,1,2.7,2.24L81.4,51.14A7.32,7.32,0,0,1,82.58,55a7.51,7.51,0,0,1-15,0,7.35,7.35,0,0,1,1.18-3.81l-8.09-8.09L58,40.29,43,25.36a8.66,8.66,0,0,1-4.79,1.44,8.79,8.79,0,0,1-1.45-.14L20.69,68.43a10.74,10.74,0,1,1-5.43-1.51,10.23,10.23,0,0,1,2.23.24L33.55,25.42a8.69,8.69,0,1,1,11.92-2.49L59,36.42a24.1,24.1,0,0,1,32.22,0l16-16a5.27,5.27,0,0,1-.56-2.3,5.38,5.38,0,1,1,10.75,0,5.24,5.24,0,0,1-1.3,3.38l6.67,10.83h0A3.32,3.32,0,0,1,126.05,35.64ZM93.79,71l-2.7-2.7a.68.68,0,0,1-.29.29,6.71,6.71,0,0,1-.86,1A12.51,12.51,0,0,1,88.39,71,20.84,20.84,0,0,1,57.78,43.28L55,40.52A24.66,24.66,0,0,0,91.09,73.66l14.76,14.82h5.52l-2-2Z"/></svg>