<svg id="Layer_1" data-name="Layer 1" xmlns="http://www.w3.org/2000/svg" viewBox="0 0 452.16 123.65"><defs><style>.cls-1{fill:#e99bc3;}</style></defs><path class="cls-1" d="M147,48.35a3.36,3.36,0,1,1-6.34-1.48l-6.79-11a5.17,5.17,0,0,1-1.12.22,5.28,5.28,0,0,1-2.38-.61L114.26,51.56c.5.57,1,1.13,1.46,1.73a24.84,24.84,0,0,1,4.71,14.58,24.54,24.54,0,0,1-4,13.42l-2.85-2.85a20.63,20.63,0,0,0,2.9-10.57,21,21,0,0,0-3.6-11.79,25.68,25.68,0,0,0-2.2-2.73A20.86,20.86,0,0,0,81.9,51.87l9.64,9.65a6.8,6.8,0,0,1,7.83,0l7.93-7.94A14.45,14.45,0,0,1,110,55.85L101.85,64a7.36,7.36,0,0,1,1.2,3.86,7.6,7.6,0,0,1-15.19,0A7.3,7.3,0,0,1,89.06,64l-8.19-8.18-2.73-2.79L63.05,38a8.73,8.73,0,0,1-4.84,1.46,8.93,8.93,0,0,1-1.47-.15L40.47,81.51A10.85,10.85,0,1,1,35,80a11.18,11.18,0,0,1,2.26.24L53.48,38A8.79,8.79,0,1,1,67,30.63a8.67,8.67,0,0,1-1.48,4.87L79.16,49.14a24.38,24.38,0,0,1,32.58,0L127.89,33a5.2,5.2,0,0,1-.57-2.32,5.44,5.44,0,1,1,10.87,0,5.33,5.33,0,0,1-1.31,3.42l6.74,11h0A3.36,3.36,0,0,1,147,48.35ZM114.39,84.07l-2.73-2.73a.68.68,0,0,1-.29.29,7.59,7.59,0,0,1-.88,1,12.05,12.05,0,0,1-1.56,1.45,21.08,21.08,0,0,1-31-28l-2.79-2.79A24.94,24.94,0,0,0,111.66,86.8l14.92,15h5.58l-2-2Z"/><path class="cls-1" d="M171,69.32h10.94q4.06,0,4.07,4.08V94.35h-4.43V74a1.27,1.27,0,0,0-1.6-1.61H169.9a1.85,1.85,0,0,0-1.39.44,2,2,0,0,0-.41,1.42V94.35h-4.44V74a2,2,0,0,0-.29-1.3,1.92,1.92,0,0,0-1.31-.31H151.22a1.81,1.81,0,0,0-1.34.42,1.89,1.89,0,0,0-.42,1.39V94.35H145v-25h4.43V71a2.74,2.74,0,0,1,2.84-1.65H164c2,0,3.22.71,3.77,2.12C168.13,70,169.2,69.32,171,69.32Z"/><path class="cls-1" d="M202.21,101.63h-4.9v-3h3.4a3.79,3.79,0,0,0,3.72-1.91l1.13-2.32H204l-11-25h4.49l9.4,22,9.18-22h4.49L208.25,97.19a9,9,0,0,1-2.27,3.35A5.74,5.74,0,0,1,202.21,101.63Z"/><path class="cls-1" d="M247.57,69.32H252v32.31h-4.44V92.7a2.74,2.74,0,0,1-2.84,1.65H232q-4.08,0-4.08-4.08V73.4q0-4.08,4.08-4.08h12.74A2.74,2.74,0,0,1,247.57,71ZM234,91.31h11.87a1.82,1.82,0,0,0,1.34-.42,1.94,1.94,0,0,0,.41-1.39V74.17a1.94,1.94,0,0,0-.41-1.39,1.82,1.82,0,0,0-1.34-.42H234a1.93,1.93,0,0,0-1.32.31,2.05,2.05,0,0,0-.28,1.3V89.71a1.24,1.24,0,0,0,1.6,1.6Z"/><path class="cls-1" d="M278.8,69.32h4.43v25H278.8V92.7A2.74,2.74,0,0,1,276,94.35H263.72q-4.07,0-4.07-4.08v-21h4.44V89.71A1.86,1.86,0,0,0,264.4,91a2,2,0,0,0,1.29.29H277a1.81,1.81,0,0,0,1.34-.42,1.89,1.89,0,0,0,.42-1.39Z"/><path class="cls-1" d="M297.11,69.32h15.95q4.08,0,4.08,4.08v9.65H297.48v6.66a1.86,1.86,0,0,0,.31,1.31,2,2,0,0,0,1.29.29H311a1.25,1.25,0,0,0,1.6-1.6V87.28H317v3c0,2.72-1.35,4.08-4.07,4.08h-15.8q-4.07,0-4.07-4.08V73.4Q293,69.32,297.11,69.32ZM297.48,80h15.27V74a1.27,1.27,0,0,0-1.6-1.61H299.08a1.27,1.27,0,0,0-1.6,1.61Z"/><path class="cls-1" d="M334.89,69.32h5.37v3.15h-6c-2.24,0-3.35,1.29-3.35,3.87v18h-4.44v-25h4.44v3.15A3.8,3.8,0,0,1,334.89,69.32Z"/><path class="cls-1" d="M352.85,101.63H348v-3h3.4c1.83,0,3.07-.64,3.72-1.91l1.14-2.32h-1.55l-11-25h4.49l9.39,22,9.18-22h4.49L358.89,97.19a8.88,8.88,0,0,1-2.27,3.35A5.74,5.74,0,0,1,352.85,101.63Z"/><path class="cls-1" d="M375.71,94.35v-6h5.11v6Z"/><path class="cls-1" d="M408.23,69.32h4.44v25h-4.44V92.7a2.74,2.74,0,0,1-2.84,1.65H393.16q-4.08,0-4.08-4.08V73.4q0-4.08,4.08-4.08h12.23A2.74,2.74,0,0,1,408.23,71Zm-13.11,22h11.35a1.81,1.81,0,0,0,1.34-.42,1.89,1.89,0,0,0,.42-1.39V74.17a1.89,1.89,0,0,0-.42-1.39,1.81,1.81,0,0,0-1.34-.42H395.12a1.94,1.94,0,0,0-1.29.31,1.9,1.9,0,0,0-.31,1.3V89.71a1.86,1.86,0,0,0,.31,1.31A2,2,0,0,0,395.12,91.31Z"/><path class="cls-1" d="M423.4,64.21V59.77h4.7v4.44Zm4.54,30.14H423.5v-25h4.44Z"/></svg>